<svg width="1095" height="1095" viewBox="0 0 1095 1095" fill="none" xmlns="http://www.w3.org/2000/svg">
<path d="M922.981 546.365C922.981 447.803 884.179 353.203 814.968 283.028C745.758 212.854 651.703 172.748 553.15 171.386C454.597 170.023 359.469 207.514 288.345 275.748C217.221 343.982 175.819 437.474 173.094 535.998C170.369 634.523 206.542 730.16 273.786 802.22C341.03 874.281 433.941 916.972 532.418 921.058C630.896 925.144 727.023 890.298 800.007 824.056C872.99 757.814 916.961 665.503 922.408 567.091L852.282 563.209C847.855 643.19 812.119 718.213 752.804 772.049C693.489 825.885 615.365 854.206 535.33 850.885C455.295 847.564 379.786 812.868 325.135 754.303C270.484 695.738 241.086 618.013 243.301 537.94C245.515 457.867 279.163 381.885 336.967 326.43C394.771 270.974 472.083 240.505 552.179 241.612C632.275 242.72 708.715 275.315 764.964 332.346C821.213 389.378 852.748 466.262 852.748 546.365H922.981Z" fill="#0C4B75"/>
<path d="M750.595 546.489C750.595 493.174 729.605 442.003 692.168 404.044C654.73 366.085 603.853 344.39 550.544 343.653C497.234 342.916 445.777 363.196 407.305 400.106C368.832 437.015 346.436 487.587 344.962 540.881C343.488 594.176 363.055 645.908 399.429 684.887C435.803 723.866 486.061 746.959 539.329 749.169C592.598 751.38 644.596 732.53 684.074 696.698C723.553 660.867 747.338 610.933 750.284 557.7L678.507 553.727C676.604 588.096 661.248 620.334 635.76 643.467C610.272 666.601 576.701 678.771 542.31 677.344C507.918 675.917 475.471 661.008 451.987 635.842C428.503 610.676 415.871 577.276 416.822 542.868C417.774 508.46 432.233 475.81 457.072 451.981C481.911 428.151 515.132 415.058 549.55 415.534C583.968 416.01 616.815 430.016 640.985 454.523C665.156 479.03 678.707 512.068 678.707 546.489H750.595Z" fill="#0C4B75"/>
<path d="M1094.41 547.204C1094.41 403.386 1037.79 265.35 936.8 162.956C835.811 60.5612 698.571 2.04031 554.768 0.052283C410.964 -1.93574 272.159 52.769 168.378 152.333C64.5972 251.897 4.18479 388.314 0.209122 532.077C-3.76655 675.839 49.0142 815.387 147.134 920.535C245.254 1025.68 380.823 1087.97 524.517 1093.94C668.211 1099.9 808.475 1049.05 914.969 952.396C1021.46 855.739 1085.62 721.043 1093.57 577.446L1023.57 573.571C1016.64 698.771 960.7 816.209 867.85 900.482C775.001 984.755 652.707 1029.09 527.424 1023.89C402.14 1018.69 283.94 964.379 198.391 872.703C112.843 781.027 66.8245 659.358 70.2908 534.015C73.7571 408.672 126.429 289.732 216.914 202.924C307.398 116.117 428.419 68.4207 553.799 70.154C679.178 71.8873 798.835 122.91 886.885 212.186C974.935 301.462 1024.3 421.812 1024.3 547.204H1094.41Z" fill="#0C4B75"/>
</svg>
